<svg width="512" height="512" viewBox="0 0 512 512" fill="none" xmlns="http://www.w3.org/2000/svg" role="img" aria-labelledby="title desc">
  <title id="title">CVisionary logo</title>
  <desc id="desc">An eye-inspired blue and green CVisionary logo.</desc>
  <rect width="512" height="512" rx="72" fill="#031532"/>
  <ellipse cx="256" cy="212" rx="150" ry="74" stroke="url(#eyeStroke)" stroke-width="18"/>
  <ellipse cx="256" cy="212" rx="104" ry="50" fill="url(#eyeCore)" opacity="0.92"/>
  <circle cx="256" cy="212" r="40" fill="#07162D"/>
  <circle cx="256" cy="212" r="24" fill="url(#pupil)"/>
  <path d="M132 212H98" stroke="#1E88E5" stroke-width="14" stroke-linecap="round"/>
  <path d="M154 192L116 168" stroke="#1E88E5" stroke-width="12" stroke-linecap="round"/>
  <path d="M154 232L116 256" stroke="#1E88E5" stroke-width="12" stroke-linecap="round"/>
  <path d="M380 212H414" stroke="#8AD83B" stroke-width="14" stroke-linecap="round"/>
  <path d="M358 192L396 168" stroke="#8AD83B" stroke-width="12" stroke-linecap="round"/>
  <path d="M358 232L396 256" stroke="#8AD83B" stroke-width="12" stroke-linecap="round"/>
  <circle cx="98" cy="212" r="10" fill="#1E88E5"/>
  <circle cx="116" cy="168" r="8" fill="#1E88E5"/>
  <circle cx="116" cy="256" r="8" fill="#1E88E5"/>
  <circle cx="414" cy="212" r="10" fill="#8AD83B"/>
  <circle cx="396" cy="168" r="8" fill="#8AD83B"/>
  <circle cx="396" cy="256" r="8" fill="#8AD83B"/>
  <path d="M214 242C224 254 240 262 256 262C272 262 288 254 298 242" stroke="url(#mouthStroke)" stroke-width="10" stroke-linecap="round"/>
  <path d="M196 308H316" stroke="url(#wordStroke)" stroke-width="18" stroke-linecap="round"/>
  <path d="M202 382H272C294 382 310 366 310 344C310 322 294 306 272 306H202V382Z" fill="url(#cGrad)"/>
  <path d="M338 306L292 382H320L332 359H364L376 382H404L358 306H338ZM339 336L348 318L357 336H339Z" fill="url(#vGrad)"/>
  <path d="M206 306H234C222 320 216 340 216 356C216 366 218 374 222 382H194C190 373 188 364 188 354C188 334 194 318 206 306Z" fill="#031532" opacity="0.12"/>
  <text x="136" y="448" fill="#EEF2FF" font-family="Arial, Helvetica, sans-serif" font-size="64" font-weight="700">isionary</text>
  <defs>
    <linearGradient id="eyeStroke" x1="106" y1="136" x2="406" y2="288" gradientUnits="userSpaceOnUse">
      <stop stop-color="#1E88E5"/>
      <stop offset="0.55" stop-color="#2EC4B6"/>
      <stop offset="1" stop-color="#8AD83B"/>
    </linearGradient>
    <linearGradient id="eyeCore" x1="177" y1="171" x2="325" y2="253" gradientUnits="userSpaceOnUse">
      <stop stop-color="#2D99FF"/>
      <stop offset="1" stop-color="#031532"/>
    </linearGradient>
    <radialGradient id="pupil" cx="0" cy="0" r="1" gradientUnits="userSpaceOnUse" gradientTransform="translate(247 204) rotate(51.3402) scale(30.5287 30.5287)">
      <stop stop-color="#FFFFFF"/>
      <stop offset="0.45" stop-color="#D8F4FF"/>
      <stop offset="1" stop-color="#1E88E5"/>
    </radialGradient>
    <linearGradient id="mouthStroke" x1="196" y1="242" x2="316" y2="242" gradientUnits="userSpaceOnUse">
      <stop stop-color="#2EC4B6"/>
      <stop offset="1" stop-color="#8AD83B"/>
    </linearGradient>
    <linearGradient id="wordStroke" x1="194" y1="308" x2="316" y2="308" gradientUnits="userSpaceOnUse">
      <stop stop-color="#0EA5E9"/>
      <stop offset="1" stop-color="#8AD83B"/>
    </linearGradient>
    <linearGradient id="cGrad" x1="188" y1="306" x2="310" y2="382" gradientUnits="userSpaceOnUse">
      <stop stop-color="#EAF7FF"/>
      <stop offset="1" stop-color="#0EA5E9"/>
    </linearGradient>
    <linearGradient id="vGrad" x1="292" y1="306" x2="404" y2="382" gradientUnits="userSpaceOnUse">
      <stop stop-color="#8AD83B"/>
      <stop offset="1" stop-color="#D7FF74"/>
    </linearGradient>
  </defs>
</svg>
